Coordinates
version=1
nRows=16
nColumns=40
inDegrees=yes

Units are S.I. units (second, meters, Newtons, ...)
If the header above contains a line with 'inDegrees', this indicates whether rotational values are in degrees (yes) or radians (no).

endheader
time	pelvis_tilt	pelvis_list	pelvis_rotation	pelvis_tx	pelvis_ty	pelvis_tz	hip_flexion_r	hip_adduction_r	hip_rotation_r	knee_angle_r	knee_angle_r_beta	ankle_angle_r	subtalar_angle_r	mtp_angle_r	hip_flexion_l	hip_adduction_l	hip_rotation_l	knee_angle_l	knee_angle_l_beta	ankle_angle_l	subtalar_angle_l	mtp_angle_l	lumbar_extension	lumbar_bending	lumbar_rotation	arm_flex_r	arm_add_r	arm_rot_r	elbow_flex_r	pro_sup_r	wrist_flex_r	wrist_dev_r	arm_flex_l	arm_add_l	arm_rot_l	elbow_flex_l	pro_sup_l	wrist_flex_l	wrist_dev_l
      2.95000000	    -28.99902370	      2.00555634	      2.61061194	     -0.39423946	      0.77009130	     -1.01359728	     39.01652146	     -8.09795080	     -6.87736672	    100.82960126	      1.75980853	    -10.56702172	      0.00000000	      0.00000000	     71.40641531	      0.40541965	    -13.20152558	     66.58794362	      1.16217886	     13.59336372	      0.00000000	      0.00000000	     -8.80338663	    -10.39859340	     -6.89700233	     89.93895258	    -13.22761414	      6.11984995	     44.33268103	     75.11805670	      0.00000000	      0.00000000	     89.94351094	    -27.61422248	      9.48554531	     50.06375014	     78.04300259	      0.00000000	      0.00000000
      2.95500000	    -29.18247040	      1.73986505	      2.69952245	     -0.39474974	      0.76936730	     -1.01344650	     39.18003240	     -7.91833290	     -7.10038923	    100.84474185	      1.76007278	    -10.55888989	      0.00000000	      0.00000000	     71.78056631	      0.37368507	    -12.83430424	     66.75554154	      1.16510399	     13.53379164	      0.00000000	      0.00000000	     -8.67031876	    -10.15515735	     -6.95941442	     89.93946736	    -13.22573413	      6.42449429	     44.53005490	     71.64756851	      0.00000000	      0.00000000	     89.94386081	    -27.53000002	      9.76448638	     50.19759612	     74.28167469	      0.00000000	      0.00000000
      2.96000000	    -29.26430272	      1.68452725	      2.71053900	     -0.39486473	      0.76890471	     -1.01333820	     39.22882891	     -7.89294787	     -7.11441188	    100.86958522	      1.76050638	    -10.49675037	      0.00000000	      0.00000000	     71.95359783	      0.34026512	    -12.78252595	     66.87967013	      1.16727045	     13.52347256	      0.00000000	      0.00000000	     -8.64536501	    -10.12736171	     -6.93435999	     89.93983488	    -13.28193722	      5.76637456	     44.49590211	     77.26669210	      0.00000000	      0.00000000	     89.94404992	    -27.45780612	      9.07696808	     50.08940957	     80.80298254	      0.00000000	      0.00000000
      2.96500000	    -29.36952097	      1.65455699	      2.68250656	     -0.39498830	      0.76844204	     -1.01323646	     39.30256499	     -7.87985294	     -7.08292831	    100.86512792	      1.76042858	    -10.46216790	      0.00000000	      0.00000000	     72.11332669	      0.32408896	    -12.71421752	     66.94106528	      1.16834199	     13.51805113	      0.00000000	      0.00000000	     -8.60697686	    -10.11276534	     -6.95342078	     89.94015519	    -13.17269826	      5.50189928	     44.56327823	     77.38583086	      0.00000000	      0.00000000	     89.94431016	    -27.48363341	      9.06379427	     50.17104103	     80.65906974	      0.00000000	      0.00000000
      2.97000000	    -29.40674630	      1.61698836	      2.70509044	     -0.39504244	      0.76800773	     -1.01318093	     39.25002533	     -7.88872340	     -7.09897802	    100.85599592	      1.76026920	    -10.20806277	      0.00000000	      0.00000000	     72.23435229	      0.32462594	    -12.65301428	     67.07098206	      1.17060947	     13.58358304	      0.00000000	      0.00000000	     -8.62568815	    -10.10256113	     -6.93690879	     89.94044264	    -13.16901115	      5.62440078	     44.61241375	     74.46511179	      0.00000000	      0.00000000	     89.94474772	    -27.25870032	      9.06413661	     50.11934527	     77.53488441	      0.00000000	      0.00000000
      2.97500000	    -29.56647465	      1.64168847	      2.64089667	     -0.39532300	      0.76742058	     -1.01301727	     39.46942808	     -7.90431501	     -6.99249650	    100.90173015	      1.76106741	    -10.57928897	      0.00000000	      0.00000000	     72.45660281	      0.27552641	    -12.67719329	     67.13386436	      1.17170697	     13.56470996	      0.00000000	      0.00000000	     -8.53002113	    -10.15706869	     -6.90789400	     89.94081316	    -13.22592971	      6.05603218	     44.94892470	     71.85146334	      0.00000000	      0.00000000	     89.94474725	    -27.37854167	      9.52585258	     50.41896788	     74.90873707	      0.00000000	      0.00000000
      2.98000000	    -29.64392773	      1.64614500	      2.62669288	     -0.39538561	      0.76699631	     -1.01292867	     39.49519471	     -7.93399601	     -6.95747384	    100.89436342	      1.76093884	    -10.48396253	      0.00000000	      0.00000000	     72.58261823	      0.26403835	    -12.67720439	     67.20157673	      1.17288878	     13.60301429	      0.00000000	      0.00000000	     -8.51463382	    -10.18690658	     -6.89545112	     89.94118618	    -13.20395022	      5.34566922	     44.88524825	     77.05565144	      0.00000000	      0.00000000	     89.94500174	    -27.27885120	      8.82284606	     50.29181277	     80.80239377	      0.00000000	      0.00000000
      2.98500000	    -29.62693974	      1.62107216	      2.67215774	     -0.39533001	      0.76663670	     -1.01290931	     39.35828774	     -7.96171791	     -7.00693788	    100.87305990	      1.76056702	    -10.13059148	      0.00000000	      0.00000000	     72.64208617	      0.29627276	    -12.62392784	     67.34228055	      1.17534452	     13.63679155	      0.00000000	      0.00000000	     -8.60101424	    -10.16815178	     -6.90391216	     89.94153994	    -13.16939820	      5.36418084	     45.01199343	     74.19315543	      0.00000000	      0.00000000	     89.94516538	    -27.06565759	      8.76753592	     50.30452594	     77.64334055	      0.00000000	      0.00000000
      2.99000000	    -29.76634506	      1.79169674	      2.60743611	     -0.39550272	      0.76613150	     -1.01285060	     39.54463142	     -8.11974160	     -6.78813755	    100.91867958	      1.76136324	    -10.48106207	      0.00000000	      0.00000000	     72.78145711	      0.33645931	    -12.75519960	     67.32876655	      1.17510866	     13.69434690	      0.00000000	      0.00000000	     -8.53088869	    -10.37748791	     -6.89575243	     89.94172289	    -13.19707703	      5.12426397	     45.08622202	     77.07150170	      0.00000000	      0.00000000	     89.94544057	    -27.18042924	      8.67916088	     50.39377054	     80.70793448	      0.00000000	      0.00000000
      2.99500000	    -29.75409163	      1.83609252	      2.60036261	     -0.39537369	      0.76577813	     -1.01276782	     39.42728909	     -8.16741155	     -6.74956185	    100.89691150	      1.76098331	    -10.22987827	      0.00000000	      0.00000000	     72.80878792	      0.35614935	    -12.76147713	     67.43616771	      1.17698316	     13.75692790	      0.00000000	      0.00000000	     -8.59836591	    -10.44155435	     -6.88282101	     89.94196796	    -13.11329308	      5.21666662	     45.16235368	     73.94371403	      0.00000000	      0.00000000	     89.94567907	    -27.00555504	      8.74588670	     50.42851933	     77.24022685	      0.00000000	      0.00000000
      3.00000000	    -29.91536032	      1.87445309	      2.59457948	     -0.39566636	      0.76523092	     -1.01270821	     39.62180981	     -8.22976985	     -6.66474017	    100.93650204	      1.76167430	    -10.51766299	      0.00000000	      0.00000000	     73.01561189	      0.35648997	    -12.81469499	     67.45780076	      1.17736073	     13.70753619	      0.00000000	      0.00000000	     -8.51692728	    -10.49974265	     -6.89960335	     89.94226704	    -13.15900675	      5.00096570	     45.26126876	     76.73598698	      0.00000000	      0.00000000	     89.94581364	    -27.09101654	      8.54447790	     50.56400554	     80.83315392	      0.00000000	      0.00000000
      3.00500000	    -30.20506788	      1.66311263	      2.71708848	     -0.39619178	      0.76443036	     -1.01267557	     39.88975895	     -8.11179347	     -6.84753443	    100.94618649	      1.76184332	    -10.56329257	      0.00000000	      0.00000000	     73.46012687	      0.38953740	    -12.54564550	     67.54844503	      1.17894277	     13.71631253	      0.00000000	      0.00000000	     -8.29010414	    -10.28613642	     -6.97326191	     89.94254100	    -13.17332528	      5.45610361	     45.47966566	     72.22620959	      0.00000000	      0.00000000	     89.94601122	    -27.05670200	      8.97362436	     50.72305202	     75.95836775	      0.00000000	      0.00000000
      3.01000000	    -30.38466993	      1.55540764	      2.76758194	     -0.39643831	      0.76380337	     -1.01262184	     40.01582168	     -8.03913852	     -6.91138231	    100.93041259	      1.76156802	    -10.51713706	      0.00000000	      0.00000000	     73.72866058	      0.38578225	    -12.42045939	     67.63965792	      1.18053474	     13.75518069	      0.00000000	      0.00000000	     -8.16814574	    -10.18851160	     -6.99726272	     89.94293389	    -13.16896837	      4.90332842	     45.41941264	     76.48711530	      0.00000000	      0.00000000	     89.94621284	    -26.99418883	      8.44054106	     50.68200402	     80.71939967	      0.00000000	      0.00000000
      3.01500000	    -30.35763675	      1.38448690	      2.92289522	     -0.39647393	      0.76325398	     -1.01261573	     39.78612074	     -7.96663962	     -7.16294094	    100.89641307	      1.76097461	     -9.80729839	      0.00000000	      0.00000000	     73.87948304	      0.42281033	    -12.23464236	     67.91085882	      1.18526808	     13.62523803	      0.00000000	      0.00000000	     -8.23560474	    -10.01531606	     -7.02821841	     89.94314129	    -13.14918652	      5.12147810	     45.55836031	     70.80303449	      0.00000000	      0.00000000	     89.94681566	    -26.59919574	      8.56159041	     50.60810010	     74.53203394	      0.00000000	      0.00000000
      3.02000000	    -30.43925293	      1.55256217	      2.87544463	     -0.39648881	      0.76274357	     -1.01255491	     39.86673724	     -8.10494324	     -6.95902199	    100.92224783	      1.76142551	    -10.06384736	      0.00000000	      0.00000000	     73.95676797	      0.48218752	    -12.34996513	     67.92801445	      1.18556751	     13.77783635	      0.00000000	      0.00000000	     -8.21101239	    -10.20506984	     -7.01897640	     89.94349366	    -13.13253361	      5.40375875	     45.67818862	     68.45881776	      0.00000000	      0.00000000	     89.94687259	    -26.63343225	      8.82332586	     50.76112995	     72.02771648	      0.00000000	      0.00000000
      3.02500000	    -30.67644485	      1.65452769	      2.87665988	     -0.39688128	      0.76216029	     -1.01260220	     40.18622423	     -8.24591774	     -6.80968773	    100.99005110	      1.76260890	    -10.56860786	      0.00000000	      0.00000000	     74.21830378	      0.54311843	    -12.44151198	     67.88499574	      1.18481669	     13.71650968	      0.00000000	      0.00000000	     -8.08913589	    -10.30669075	     -7.05397170	     89.94371251	    -13.21994211	      4.84297092	     45.74238226	     75.77373077	      0.00000000	      0.00000000	     89.94691003	    -26.84088408	      8.28790189	     50.87714928	     80.65489847	      0.00000000	      0.00000000
